<?xml version="1.0" standalone="no"?>
<!DOCTYPE svg PUBLIC "-//W3C//DTD SVG 20010904//EN"
 "http://www.w3.org/TR/2001/REC-SVG-20010904/DTD/svg10.dtd">
<svg version="1.0" xmlns="http://www.w3.org/2000/svg"
 width="754.000000pt" height="754.000000pt" viewBox="0 0 754.000000 754.000000"
 preserveAspectRatio="xMidYMid meet">
<metadata>
Created by potrace 1.11, written by Peter Selinger 2001-2013
</metadata>
<g transform="translate(0.000000,754.000000) scale(0.100000,-0.100000)"
fill="#000000" stroke="none">
<path d="M3909 7258 c-86 -12 -114 -19 -143 -34 -24 -11 -31 -12 -39 -2 -6 9
-7 8 -3 -4 6 -20 -27 -43 -50 -34 -9 3 -12 1 -9 -4 3 -6 2 -10 -3 -10 -12 0
-156 -110 -161 -123 -2 -5 -16 -24 -32 -42 l-29 -32 -117 3 c-65 2 -124 4
-131 4 -7 0 -11 4 -8 8 3 5 -1 9 -8 9 -8 0 -12 -6 -10 -12 4 -8 -13 -11 -58
-10 -45 1 -72 -3 -96 -17 -18 -10 -40 -18 -49 -18 -9 0 -14 -3 -10 -6 7 -7
-78 -54 -98 -54 -8 0 -20 -8 -27 -18 -7 -9 -33 -33 -58 -52 -52 -41 -92 -84
-132 -145 -16 -24 -39 -47 -51 -51 -12 -3 -38 -21 -57 -38 -19 -18 -65 -54
-102 -79 -37 -26 -69 -55 -73 -65 -3 -11 -15 -24 -28 -31 -22 -12 -107 -112
-107 -125 0 -4 -16 -22 -35 -42 -19 -19 -38 -47 -41 -61 -4 -15 -16 -36 -26
-47 -10 -11 -18 -27 -18 -37 0 -9 -9 -28 -20 -42 -11 -14 -20 -30 -20 -37 0
-6 -7 -25 -16 -42 -42 -82 -80 -318 -77 -488 3 -182 14 -402 23 -460 17 -108
19 -122 24 -202 6 -81 13 -109 30 -120 13 -9 15 -152 2 -187 -7 -20 -5 -23 7
-18 24 9 34 -12 40 -86 3 -42 11 -75 21 -86 8 -9 17 -28 19 -41 2 -13 12 -27
23 -31 17 -6 17 -7 -6 -18 -50 -24 -137 -205 -156 -326 -16 -106 -2 -276 31
-370 43 -122 82 -202 111 -230 11 -11 29 -36 40 -55 10 -19 43 -63 72 -98 30
-36 51 -70 48 -78 -3 -7 0 -13 6 -11 6 1 47 -46 92 -105 45 -58 104 -126 133
-150 28 -24 61 -55 72 -70 11 -14 31 -28 44 -32 12 -3 33 -19 45 -35 20 -28
21 -36 13 -103 -5 -40 -12 -125 -15 -188 -3 -63 -10 -153 -16 -200 -5 -47 -12
-123 -15 -170 -11 -168 -26 -367 -36 -457 -5 -50 -9 -121 -9 -157 l0 -66 40 6
c36 6 40 4 45 -18 4 -14 2 -40 -4 -59 l-10 -34 0 40 c1 22 1 43 0 47 -2 12
-134 -58 -155 -81 -11 -12 -31 -21 -45 -21 -45 0 -100 -20 -128 -47 -32 -29
-64 -43 -97 -43 -13 0 -31 -9 -41 -20 -10 -11 -34 -23 -54 -26 -20 -4 -53 -18
-73 -31 -21 -12 -44 -23 -52 -23 -9 0 -32 -9 -53 -20 -21 -11 -56 -22 -77 -26
-22 -3 -56 -17 -75 -30 -20 -13 -40 -24 -46 -24 -5 -1 -26 -14 -45 -30 -19
-17 -40 -30 -46 -30 -6 0 -25 -7 -40 -15 -16 -8 -36 -15 -45 -15 -9 0 -31 -10
-50 -23 -19 -13 -54 -31 -79 -41 -25 -9 -65 -28 -89 -42 -24 -13 -52 -24 -62
-24 -11 0 -19 -4 -19 -8 0 -9 -64 -42 -83 -42 -7 0 -25 -11 -41 -25 -16 -14
-38 -25 -49 -25 -23 0 -167 -71 -212 -105 -16 -12 -48 -28 -70 -35 -92 -30
-117 -41 -146 -70 -17 -16 -35 -27 -40 -25 -4 3 -10 1 -13 -4 -3 -4 -20 -11
-38 -15 -18 -3 -60 -23 -92 -43 -32 -20 -68 -37 -80 -38 -63 -7 -109 -28 -142
-65 -27 -30 -45 -40 -80 -46 -24 -3 -54 -14 -67 -24 -12 -9 -38 -25 -57 -35
-48 -25 -100 -67 -100 -82 0 -10 761 -13 3770 -13 l3770 0 0 134 0 134 -35 22
c-42 26 -153 70 -176 70 -9 0 -29 14 -44 32 -31 37 -100 82 -159 105 -22 9
-47 21 -55 27 -7 5 -21 15 -31 21 -179 104 -199 120 -312 235 -15 15 -44 35
-65 45 -21 10 -65 47 -99 82 -34 34 -67 63 -75 63 -8 0 -27 11 -43 25 -16 14
-35 25 -42 25 -7 0 -17 6 -21 14 -12 21 -134 83 -179 92 -21 4 -48 13 -59 20
-11 8 -28 14 -38 14 -10 0 -15 4 -12 10 3 6 -1 7 -9 4 -33 -13 -17 34 19 56
35 22 41 39 35 107 -2 26 37 86 50 78 5 -3 12 0 16 6 4 8 3 9 -4 5 -7 -4 -12
-2 -12 4 0 6 8 13 18 17 27 10 52 45 52 78 0 17 7 41 15 55 8 14 15 36 15 50
0 20 2 22 11 10 7 -11 8 -4 4 27 -7 44 4 61 65 104 l23 15 -32 33 c-17 18 -30
35 -28 39 2 4 13 28 25 53 14 32 31 51 51 60 37 17 38 20 47 109 5 55 3 81
-10 115 -16 40 -16 47 0 97 9 29 23 60 30 69 8 8 14 24 14 35 0 11 8 35 18 54
17 31 19 58 17 260 -1 124 1 253 6 287 6 41 5 72 -2 90 l-11 28 -11 -25 c-11
-25 -11 -25 -15 8 -2 18 1 54 7 80 6 30 6 51 0 58 -7 8 -6 13 3 16 10 4 10 8
1 19 -6 8 -13 52 -16 99 -6 90 -25 188 -50 257 -9 23 -19 63 -22 90 -6 42 -44
181 -65 238 -4 11 -13 39 -19 62 -6 23 -18 49 -27 57 -8 8 -15 18 -14 21 2 38
-1 48 -12 37 -7 -7 -16 -12 -22 -12 -6 0 -5 5 2 12 23 23 13 53 -25 76 -21 12
-33 22 -26 22 13 0 53 65 53 86 0 9 20 41 46 71 32 40 42 58 33 64 -10 6 -6
17 14 46 15 22 27 46 27 55 0 8 7 21 15 28 8 7 15 21 15 31 0 11 4 19 8 19 15
0 5 305 -11 357 -8 26 -20 77 -27 113 -6 35 -18 76 -25 90 -7 14 -14 41 -16
60 -2 19 -6 40 -10 45 -3 6 -12 28 -19 50 -7 22 -16 45 -21 51 -5 6 -7 20 -4
33 2 12 0 19 -6 16 -5 -4 -6 -11 -3 -17 4 -7 2 -8 -4 -4 -7 4 -9 19 -6 35 5
23 2 32 -14 40 -11 6 -25 24 -31 41 -7 20 -20 34 -40 41 -28 10 -48 36 -36 47
3 3 5 0 5 -6 0 -7 9 -12 19 -12 30 0 35 35 12 67 -12 15 -24 43 -27 61 -6 30
-2 37 52 90 88 86 106 111 107 150 0 7 6 11 12 8 6 -2 12 2 13 10 1 8 3 21 4
29 1 8 5 12 9 9 4 -2 13 12 18 33 13 44 15 133 4 133 -8 0 -38 60 -48 96 -3
11 1 38 9 60 20 59 13 100 -23 134 -17 17 -31 35 -31 41 0 14 -91 105 -102
101 -12 -3 -82 34 -97 52 -8 9 -25 16 -40 16 -14 0 -35 7 -45 15 -11 8 -29 15
-41 15 -11 0 -30 7 -41 15 -12 8 -24 12 -27 9 -3 -3 -19 2 -36 12 -27 16 -33
16 -57 3 -21 -11 -28 -11 -31 -1 -3 6 -11 12 -19 12 -8 0 -14 4 -14 8 0 5 -28
38 -62 74 -86 90 -206 171 -273 184 -19 3 -45 14 -58 24 -14 11 -51 20 -102
24 -250 24 -295 27 -343 27 -29 1 -58 -4 -65 -9 -12 -10 -44 -17 -131 -27 -27
-3 -56 -10 -65 -14 -20 -11 -125 64 -115 81 4 6 3 8 -3 5 -11 -7 -73 29 -73
43 0 5 -7 7 -15 4 -8 -4 -33 3 -55 15 -22 12 -57 21 -78 21 -20 0 -53 5 -72
11 -39 13 -242 18 -311 7z"/>
<path d="M4998 7123 c7 -3 16 -2 19 1 4 3 -2 6 -13 5 -11 0 -14 -3 -6 -6z"/>
<path d="M1961 5654 c0 -11 3 -14 6 -6 3 7 2 16 -1 19 -3 4 -6 -2 -5 -13z"/>
<path d="M1952 5610 c0 -14 2 -19 5 -12 2 6 2 18 0 25 -3 6 -5 1 -5 -13z"/>
<path d="M1957 5303 c-8 -13 -5 -63 3 -68 4 -3 7 13 7 35 -1 41 -2 46 -10 33z"/>
<path d="M2033 4645 c0 -8 4 -15 9 -15 4 0 8 4 8 9 0 6 -4 12 -8 15 -5 3 -9
-1 -9 -9z"/>
</g>
</svg>
